<svg xmlns="http://www.w3.org/2000/svg" xmlns:xlink="http://www.w3.org/1999/xlink" width="434" zoomAndPan="magnify" viewBox="0 0 325.5 76.499998" height="102" preserveAspectRatio="xMidYMid meet" version="1.0"><defs><g/><clipPath id="52404dc087"><path d="M 26 44 L 74.578125 44 L 74.578125 75.578125 L 26 75.578125 Z M 26 44 " clip-rule="nonzero"/></clipPath><clipPath id="07ba6dc61d"><path d="M 0.808594 1.8125 L 74.578125 1.8125 L 74.578125 70 L 0.808594 70 Z M 0.808594 1.8125 " clip-rule="nonzero"/></clipPath></defs><g clip-path="url(#52404dc087)"><path fill="#5271ff" d="M 59.011719 54.980469 C 54.136719 61.371094 46.449219 65.507812 37.820312 65.507812 C 35.777344 65.507812 33.773438 65.289062 31.828125 64.84375 L 26.410156 74.074219 C 30.078125 75.265625 33.90625 75.871094 37.820312 75.871094 C 42.8125 75.871094 47.660156 74.894531 52.226562 72.960938 C 56.632812 71.097656 60.589844 68.429688 63.988281 65.035156 C 66.929688 62.09375 69.320312 58.730469 71.121094 55.023438 C 71.402344 54.449219 71.667969 53.859375 71.914062 53.265625 C 73.089844 50.496094 73.910156 47.621094 74.375 44.667969 L 43.699219 44.667969 L 37.617188 54.980469 Z M 59.011719 54.980469 " fill-opacity="1" fill-rule="nonzero"/></g><g clip-path="url(#07ba6dc61d)"><path fill="#5271ff" d="M 23.035156 4.929688 C 18.527344 6.894531 14.507812 9.703125 11.089844 13.269531 C 10.550781 13.832031 10.019531 14.421875 9.511719 15.019531 L 9.515625 15.023438 C 9.429688 15.125 9.34375 15.222656 9.261719 15.324219 L 23.09375 38.867188 L 15.554688 51.695312 L 2.101562 29.132812 C 1.25 32.269531 0.808594 35.539062 0.808594 38.867188 C 0.808594 42.703125 1.386719 46.453125 2.53125 50.054688 C 2.875 51.140625 3.273438 52.214844 3.71875 53.273438 C 5.121094 56.589844 6.980469 59.648438 9.261719 62.40625 C 9.871094 63.144531 10.511719 63.863281 11.179688 64.554688 L 11.195312 64.578125 L 11.648438 65.03125 C 13.328125 66.710938 15.140625 68.207031 17.082031 69.523438 C 17.082031 69.523438 17.082031 69.523438 17.085938 69.527344 L 35.097656 38.863281 L 22.335938 17.148438 C 26.816406 13.933594 32.167969 12.195312 37.816406 12.195312 C 46.449219 12.195312 54.136719 16.355469 59.011719 22.695312 L 37.621094 22.695312 L 43.699219 33.0625 L 74.375 33.0625 C 73.910156 30.105469 73.089844 27.234375 71.914062 24.460938 C 71.664062 23.867188 71.398438 23.285156 71.121094 22.707031 C 69.320312 19 66.929688 15.636719 63.988281 12.695312 C 60.589844 9.296875 56.632812 6.628906 52.226562 4.765625 C 47.65625 2.839844 42.8125 1.859375 37.816406 1.859375 C 32.683594 1.859375 27.710938 2.890625 23.035156 4.929688 Z M 23.035156 4.929688 " fill-opacity="1" fill-rule="nonzero"/></g><path stroke-linecap="round" transform="matrix(0, -0.74513, 0.74513, 0, 83.335467, 75.921604)" fill="none" stroke-linejoin="miter" d="M 2.500249 2.501244 L 96.967848 2.501244 " stroke="#5271ff" stroke-width="5" stroke-opacity="1" stroke-miterlimit="4"/><g fill="#5e17eb" fill-opacity="1"><g transform="translate(95.608767, 33.733727)"><g><path d="M 11.34375 0.359375 C 9.613281 0.359375 8.109375 0.0625 6.828125 -0.53125 C 5.554688 -1.125 4.503906 -1.929688 3.671875 -2.953125 C 2.847656 -3.984375 2.226562 -5.164062 1.8125 -6.5 C 1.40625 -7.832031 1.203125 -9.222656 1.203125 -10.671875 C 1.203125 -12.117188 1.40625 -13.503906 1.8125 -14.828125 C 2.226562 -16.148438 2.847656 -17.320312 3.671875 -18.34375 C 4.503906 -19.375 5.554688 -20.179688 6.828125 -20.765625 C 8.109375 -21.359375 9.613281 -21.65625 11.34375 -21.65625 C 13.050781 -21.65625 14.535156 -21.367188 15.796875 -20.796875 C 17.054688 -20.234375 18.0625 -19.441406 18.8125 -18.421875 C 19.570312 -17.410156 20.050781 -16.234375 20.25 -14.890625 L 16.375 -14.890625 C 16.144531 -16.046875 15.570312 -16.9375 14.65625 -17.5625 C 13.75 -18.1875 12.625 -18.5 11.28125 -18.5 C 9.882812 -18.5 8.707031 -18.160156 7.75 -17.484375 C 6.789062 -16.816406 6.066406 -15.894531 5.578125 -14.71875 C 5.097656 -13.550781 4.859375 -12.203125 4.859375 -10.671875 C 4.859375 -9.140625 5.097656 -7.78125 5.578125 -6.59375 C 6.066406 -5.40625 6.789062 -4.472656 7.75 -3.796875 C 8.707031 -3.128906 9.882812 -2.796875 11.28125 -2.796875 C 12.625 -2.796875 13.75 -3.125 14.65625 -3.78125 C 15.570312 -4.445312 16.144531 -5.441406 16.375 -6.765625 L 20.25 -6.765625 C 19.9375 -4.597656 19.007812 -2.867188 17.46875 -1.578125 C 15.9375 -0.285156 13.894531 0.359375 11.34375 0.359375 Z M 11.34375 0.359375 "/></g></g></g><g fill="#5e17eb" fill-opacity="1"><g transform="translate(121.672255, 33.733727)"><g><path d="M 14.75 0 L 1.984375 0 L 1.984375 -21.3125 L 5.53125 -21.3125 L 5.53125 -3.1875 L 14.75 -3.1875 Z M 14.75 0 "/></g></g></g><g fill="#5e17eb" fill-opacity="1"><g transform="translate(141.590658, 33.733727)"><g><path d="M 16.09375 0 L 1.984375 0 L 1.984375 -21.3125 L 16.09375 -21.3125 L 16.09375 -18.125 L 5.53125 -18.125 L 5.53125 -12.265625 L 14.921875 -12.265625 L 14.921875 -9.109375 L 5.53125 -9.109375 L 5.53125 -3.1875 L 16.09375 -3.1875 Z M 16.09375 0 "/></g></g></g><g fill="#5e17eb" fill-opacity="1"><g transform="translate(163.715704, 33.733727)"><g><path d="M 11.40625 0.359375 C 9.664062 0.359375 8.148438 0.0625 6.859375 -0.53125 C 5.578125 -1.125 4.519531 -1.929688 3.6875 -2.953125 C 2.851562 -3.984375 2.226562 -5.160156 1.8125 -6.484375 C 1.40625 -7.804688 1.203125 -9.203125 1.203125 -10.671875 C 1.203125 -12.140625 1.40625 -13.53125 1.8125 -14.84375 C 2.226562 -16.15625 2.851562 -17.320312 3.6875 -18.34375 C 4.519531 -19.375 5.578125 -20.179688 6.859375 -20.765625 C 8.148438 -21.359375 9.664062 -21.65625 11.40625 -21.65625 C 13.132812 -21.65625 14.632812 -21.359375 15.90625 -20.765625 C 17.1875 -20.179688 18.25 -19.375 19.09375 -18.34375 C 19.9375 -17.320312 20.5625 -16.15625 20.96875 -14.84375 C 21.382812 -13.53125 21.59375 -12.140625 21.59375 -10.671875 C 21.59375 -9.203125 21.382812 -7.804688 20.96875 -6.484375 C 20.5625 -5.160156 19.9375 -3.984375 19.09375 -2.953125 C 18.25 -1.929688 17.1875 -1.125 15.90625 -0.53125 C 14.632812 0.0625 13.132812 0.359375 11.40625 0.359375 Z M 11.40625 -2.828125 C 12.8125 -2.828125 14 -3.160156 14.96875 -3.828125 C 15.9375 -4.492188 16.671875 -5.414062 17.171875 -6.59375 C 17.679688 -7.78125 17.9375 -9.140625 17.9375 -10.671875 C 17.9375 -12.203125 17.679688 -13.550781 17.171875 -14.71875 C 16.671875 -15.894531 15.9375 -16.816406 14.96875 -17.484375 C 14 -18.160156 12.8125 -18.5 11.40625 -18.5 C 10 -18.5 8.804688 -18.160156 7.828125 -17.484375 C 6.859375 -16.816406 6.117188 -15.894531 5.609375 -14.71875 C 5.109375 -13.550781 4.859375 -12.203125 4.859375 -10.671875 C 4.859375 -9.140625 5.109375 -7.78125 5.609375 -6.59375 C 6.117188 -5.414062 6.859375 -4.492188 7.828125 -3.828125 C 8.804688 -3.160156 10 -2.828125 11.40625 -2.828125 Z M 11.40625 -2.828125 "/></g></g></g><g fill="#5e17eb" fill-opacity="1"><g transform="translate(191.371335, 33.733727)"><g><path d="M 10.59375 0 L 7.046875 0 L 7.046875 -18.125 L 0.328125 -18.125 L 0.328125 -21.3125 L 17.34375 -21.3125 L 17.34375 -18.125 L 10.59375 -18.125 Z M 10.59375 0 "/></g></g></g><g fill="#5e17eb" fill-opacity="1"><g transform="translate(213.859497, 33.733727)"><g><path d="M 5.53125 0 L 1.984375 0 L 1.984375 -21.3125 L 5.53125 -21.3125 L 5.53125 -12.265625 L 15.171875 -12.265625 L 15.171875 -21.3125 L 18.71875 -21.3125 L 18.71875 0 L 15.171875 0 L 15.171875 -9.109375 L 5.53125 -9.109375 Z M 5.53125 0 "/></g></g></g><g fill="#5e17eb" fill-opacity="1"><g transform="translate(239.44814, 33.733727)"><g><path d="M 16.09375 0 L 1.984375 0 L 1.984375 -21.3125 L 16.09375 -21.3125 L 16.09375 -18.125 L 5.53125 -18.125 L 5.53125 -12.265625 L 14.921875 -12.265625 L 14.921875 -9.109375 L 5.53125 -9.109375 L 5.53125 -3.1875 L 16.09375 -3.1875 Z M 16.09375 0 "/></g></g></g><g fill="#5e17eb" fill-opacity="1"><g transform="translate(261.573187, 33.733727)"><g><path d="M 5.53125 0 L 1.984375 0 L 1.984375 -21.3125 L 6.28125 -21.3125 L 15.3125 -4.890625 L 15.3125 -21.3125 L 18.828125 -21.3125 L 18.828125 0 L 14.5625 0 L 5.53125 -16.421875 Z M 5.53125 0 "/></g></g></g><g fill="#5e17eb" fill-opacity="1"><g transform="translate(287.245621, 33.733727)"><g><path d="M 3.9375 0 L 0.25 0 L 7.875 -21.3125 L 11.796875 -21.3125 L 19.421875 0 L 15.734375 0 L 14.171875 -4.671875 L 5.53125 -4.671875 Z M 9.828125 -17.515625 L 6.5625 -7.765625 L 13.109375 -7.765625 Z M 9.828125 -17.515625 "/></g></g></g><g fill="#5271ff" fill-opacity="1"><g transform="translate(95.608767, 64.101849)"><g><path d="M 10.359375 0.328125 C 8.773438 0.328125 7.398438 0.0546875 6.234375 -0.484375 C 5.066406 -1.023438 4.101562 -1.765625 3.34375 -2.703125 C 2.59375 -3.640625 2.03125 -4.710938 1.65625 -5.921875 C 1.28125 -7.140625 1.09375 -8.410156 1.09375 -9.734375 C 1.09375 -11.066406 1.28125 -12.332031 1.65625 -13.53125 C 2.03125 -14.738281 2.59375 -15.8125 3.34375 -16.75 C 4.101562 -17.6875 5.066406 -18.421875 6.234375 -18.953125 C 7.398438 -19.492188 8.773438 -19.765625 10.359375 -19.765625 C 11.921875 -19.765625 13.273438 -19.503906 14.421875 -18.984375 C 15.566406 -18.460938 16.484375 -17.738281 17.171875 -16.8125 C 17.859375 -15.882812 18.296875 -14.8125 18.484375 -13.59375 L 14.9375 -13.59375 C 14.738281 -14.644531 14.222656 -15.453125 13.390625 -16.015625 C 12.554688 -16.585938 11.523438 -16.875 10.296875 -16.875 C 9.023438 -16.875 7.953125 -16.566406 7.078125 -15.953125 C 6.203125 -15.347656 5.539062 -14.507812 5.09375 -13.4375 C 4.65625 -12.363281 4.4375 -11.128906 4.4375 -9.734375 C 4.4375 -8.347656 4.65625 -7.109375 5.09375 -6.015625 C 5.539062 -4.929688 6.203125 -4.082031 7.078125 -3.46875 C 7.953125 -2.851562 9.023438 -2.546875 10.296875 -2.546875 C 11.523438 -2.546875 12.554688 -2.847656 13.390625 -3.453125 C 14.222656 -4.054688 14.738281 -4.960938 14.9375 -6.171875 L 18.484375 -6.171875 C 18.191406 -4.203125 17.34375 -2.625 15.9375 -1.4375 C 14.539062 -0.257812 12.679688 0.328125 10.359375 0.328125 Z M 10.359375 0.328125 "/></g></g></g><g fill="#5271ff" fill-opacity="1"><g transform="translate(119.393267, 64.101849)"><g><path d="M 10.40625 0.328125 C 8.820312 0.328125 7.441406 0.0546875 6.265625 -0.484375 C 5.097656 -1.023438 4.128906 -1.765625 3.359375 -2.703125 C 2.597656 -3.640625 2.03125 -4.707031 1.65625 -5.90625 C 1.28125 -7.113281 1.09375 -8.390625 1.09375 -9.734375 C 1.09375 -11.078125 1.28125 -12.347656 1.65625 -13.546875 C 2.03125 -14.742188 2.597656 -15.8125 3.359375 -16.75 C 4.128906 -17.6875 5.097656 -18.421875 6.265625 -18.953125 C 7.441406 -19.492188 8.820312 -19.765625 10.40625 -19.765625 C 11.988281 -19.765625 13.359375 -19.492188 14.515625 -18.953125 C 15.679688 -18.421875 16.648438 -17.6875 17.421875 -16.75 C 18.203125 -15.8125 18.78125 -14.742188 19.15625 -13.546875 C 19.53125 -12.347656 19.71875 -11.078125 19.71875 -9.734375 C 19.71875 -8.390625 19.53125 -7.113281 19.15625 -5.90625 C 18.78125 -4.707031 18.203125 -3.640625 17.421875 -2.703125 C 16.648438 -1.765625 15.679688 -1.023438 14.515625 -0.484375 C 13.359375 0.0546875 11.988281 0.328125 10.40625 0.328125 Z M 10.40625 -2.578125 C 11.695312 -2.578125 12.785156 -2.878906 13.671875 -3.484375 C 14.554688 -4.097656 15.226562 -4.945312 15.6875 -6.03125 C 16.144531 -7.113281 16.375 -8.347656 16.375 -9.734375 C 16.375 -11.128906 16.144531 -12.363281 15.6875 -13.4375 C 15.226562 -14.507812 14.554688 -15.347656 13.671875 -15.953125 C 12.785156 -16.566406 11.695312 -16.875 10.40625 -16.875 C 9.125 -16.875 8.035156 -16.566406 7.140625 -15.953125 C 6.253906 -15.347656 5.582031 -14.507812 5.125 -13.4375 C 4.664062 -12.363281 4.4375 -11.128906 4.4375 -9.734375 C 4.4375 -8.347656 4.664062 -7.113281 5.125 -6.03125 C 5.582031 -4.945312 6.253906 -4.097656 7.140625 -3.484375 C 8.035156 -2.878906 9.125 -2.578125 10.40625 -2.578125 Z M 10.40625 -2.578125 "/></g></g></g><g fill="#5271ff" fill-opacity="1"><g transform="translate(144.630694, 64.101849)"><g><path d="M 5.046875 0 L 1.8125 0 L 1.8125 -19.453125 L 7.296875 -19.453125 L 11.703125 -3.921875 L 16.109375 -19.453125 L 21.59375 -19.453125 L 21.59375 0 L 18.359375 0 L 18.359375 -17.15625 L 13.28125 0 L 10.125 0 L 5.046875 -17.03125 Z M 5.046875 0 "/></g></g></g><g fill="#5271ff" fill-opacity="1"><g transform="translate(172.46808, 64.101849)"><g><path d="M 5.046875 0 L 1.8125 0 L 1.8125 -19.453125 L 9.84375 -19.453125 C 11.0625 -19.453125 12.128906 -19.253906 13.046875 -18.859375 C 13.972656 -18.460938 14.691406 -17.847656 15.203125 -17.015625 C 15.722656 -16.179688 15.984375 -15.097656 15.984375 -13.765625 C 15.984375 -12.546875 15.726562 -11.5 15.21875 -10.625 C 14.707031 -9.757812 13.988281 -9.09375 13.0625 -8.625 C 12.132812 -8.164062 11.0625 -7.9375 9.84375 -7.9375 L 5.046875 -7.9375 Z M 5.046875 -16.546875 L 5.046875 -10.765625 L 9.40625 -10.765625 C 10.507812 -10.765625 11.347656 -11.015625 11.921875 -11.515625 C 12.503906 -12.015625 12.796875 -12.734375 12.796875 -13.671875 C 12.796875 -14.609375 12.503906 -15.320312 11.921875 -15.8125 C 11.335938 -16.300781 10.5 -16.546875 9.40625 -16.546875 Z M 5.046875 -16.546875 "/></g></g></g><g fill="#5271ff" fill-opacity="1"><g transform="translate(193.627125, 64.101849)"><g><path d="M 3.59375 0 L 0.234375 0 L 7.1875 -19.453125 L 10.765625 -19.453125 L 17.71875 0 L 14.359375 0 L 12.921875 -4.265625 L 5.046875 -4.265625 Z M 8.96875 -15.984375 L 6 -7.09375 L 11.953125 -7.09375 Z M 8.96875 -15.984375 "/></g></g></g><g fill="#5271ff" fill-opacity="1"><g transform="translate(215.984196, 64.101849)"><g><path d="M 5.046875 0 L 1.8125 0 L 1.8125 -19.453125 L 5.734375 -19.453125 L 13.96875 -4.46875 L 13.96875 -19.453125 L 17.1875 -19.453125 L 17.1875 0 L 13.28125 0 L 5.046875 -15 Z M 5.046875 0 "/></g></g></g><g fill="#5271ff" fill-opacity="1"><g transform="translate(239.411837, 64.101849)"><g><path d="M 10.53125 0 L 7.140625 0 L 7.140625 -7.546875 L -0.03125 -19.453125 L 3.75 -19.453125 L 8.796875 -10.703125 L 13.890625 -19.453125 L 17.640625 -19.453125 L 10.53125 -7.546875 Z M 10.53125 0 "/></g></g></g></svg>